<svg xmlns="http://www.w3.org/2000/svg" width="500" height="500" style="width:100%;height:100%;transform:translate3d(0,0,0);content-visibility:visible" viewBox="0 0 500 500"><defs><clipPath id="a"><path d="M0 0h500v500H0z"/></clipPath><clipPath id="d"><path d="M0 0h500v500H0z"/></clipPath><clipPath id="c"><path d="M0 0h500v500H0z"/></clipPath><clipPath id="b"><path d="M0 0h500v500H0z"/></clipPath></defs><g clip-path="url(#a)"><g clip-path="url(#b)" style="display:block"><path fill="none" stroke="#4AB3FC" stroke-linecap="round" stroke-linejoin="round" stroke-width="42" d="M-.005 0h.01" style="display:block" transform="translate(327.001 99.735)"/><path fill="none" stroke="#121330" stroke-linecap="round" stroke-linejoin="round" stroke-width="35" d="M-.005 0h.01" style="display:block" transform="translate(378.334 159.703)"/><path fill="none" stroke="#121330" stroke-linecap="round" stroke-linejoin="round" stroke-width="28.98" d="M-.005 0h.01" style="display:block" transform="translate(409.535 219.424)"/><path fill="none" stroke="#121330" stroke-linecap="round" stroke-linejoin="round" stroke-width="35" d="M-.005 0h.01" style="display:block" transform="translate(333.04 154.083)"/><g opacity="0" style="display:block"><path fill="none" stroke="#121330" stroke-linecap="round" stroke-linejoin="round" stroke-width="35" d="M333.035 154.083h.01" opacity="1"/></g><path fill="none" stroke="#121330" stroke-linecap="round" stroke-linejoin="round" stroke-width="28.98" d="M-.005 0h.01" style="display:block" transform="translate(372.966 205.333)"/><path fill="none" stroke="#121330" stroke-linecap="round" stroke-linejoin="round" stroke-width="26.04" d="M-.005 0h.01" style="display:block" transform="translate(395.78 256.331)"/><path fill="none" stroke="#121330" stroke-linecap="round" stroke-linejoin="round" stroke-width="28.98" d="M-.005 0h.01" style="display:block" transform="translate(327.671 199.294)"/><path fill="none" stroke="#121330" stroke-linecap="round" stroke-linejoin="round" stroke-width="26.04" d="M-.005 0h.01" style="display:block" transform="translate(359.21 242.24)"/><path fill="none" stroke="#121330" stroke-linecap="round" stroke-linejoin="round" stroke-width="21.98" d="M-.005 0h.01" style="display:block" transform="translate(378.329 284.178)"/><path fill="none" stroke="#121330" stroke-linecap="round" stroke-linejoin="round" stroke-width="26.04" d="M-.005 0h.01" style="display:block" transform="translate(314.251 236.052)"/><path fill="none" stroke="#121330" stroke-linecap="round" stroke-linejoin="round" stroke-width="21.98" d="M-.005 0h.01" style="display:block" transform="translate(341.763 269.707)"/><path fill="none" stroke="#121330" stroke-linecap="round" stroke-linejoin="round" stroke-width="19.04" d="M-.005 0h.01" style="display:block" transform="translate(357.281 303.973)"/><path fill="none" stroke="#121330" stroke-linecap="round" stroke-linejoin="round" stroke-width="21.98" d="M-.005 0h.01" style="display:block" transform="translate(296.169 264.047)"/><path fill="none" stroke="#121330" stroke-linecap="round" stroke-linejoin="round" stroke-width="19.04" d="M-.005 0h.01" style="display:block" transform="translate(321.632 289.774)"/><path fill="none" stroke="#121330" stroke-linecap="round" stroke-linejoin="round" stroke-width="15.96" d="M-.005 0h.01" style="display:block" transform="translate(337.402 315.628)"/><path fill="none" stroke="#121330" stroke-linecap="round" stroke-linejoin="round" stroke-width="19.04" d="M-.005 0h.01" style="display:block" transform="translate(276.339 283.171)"/><path fill="none" stroke="#121330" stroke-linecap="round" stroke-linejoin="round" stroke-width="15.96" d="M-.005 0h.01" style="display:block" transform="translate(300.159 301.96)"/><path fill="none" stroke="#121330" stroke-linecap="round" stroke-linejoin="round" stroke-width="14" d="M-.005 0h.01" style="display:block" transform="translate(317.606 322.091)"/><g opacity="0" style="display:block"><path fill="none" stroke="#121330" stroke-linecap="round" stroke-linejoin="round" stroke-width="9.52" d="M246.337 295.171h.005" opacity="1"/></g><g opacity="0" style="display:block"><path fill="none" stroke="#121330" stroke-linecap="round" stroke-linejoin="round" stroke-width="7.98" d="M270.156 313.96h.005" opacity="1"/></g><g opacity="0" style="display:block"><path fill="none" stroke="#121330" stroke-linecap="round" stroke-linejoin="round" stroke-width="7" d="M287.603 334.091h.005" opacity="1"/></g></g><g clip-path="url(#c)" style="display:block" transform="rotate(-120 255.799 249.652)"><path fill="none" stroke="#4AB3FC" stroke-linecap="round" stroke-linejoin="round" stroke-width="42" d="M-.005 0h.01" style="display:block" transform="translate(327.001 99.735)"/><path fill="none" stroke="#121330" stroke-linecap="round" stroke-linejoin="round" stroke-width="35" d="M-.005 0h.01" style="display:block" transform="translate(378.334 159.703)"/><path fill="none" stroke="#121330" stroke-linecap="round" stroke-linejoin="round" stroke-width="28.98" d="M-.005 0h.01" style="display:block" transform="translate(409.535 219.424)"/><path fill="none" stroke="#121330" stroke-linecap="round" stroke-linejoin="round" stroke-width="35" d="M-.005 0h.01" style="display:block" transform="translate(333.04 154.083)"/><g opacity="0" style="display:block"><path fill="none" stroke="#121330" stroke-linecap="round" stroke-linejoin="round" stroke-width="35" d="M333.035 154.083h.01" opacity="1"/></g><path fill="none" stroke="#121330" stroke-linecap="round" stroke-linejoin="round" stroke-width="28.98" d="M-.005 0h.01" style="display:block" transform="translate(372.966 205.333)"/><path fill="none" stroke="#121330" stroke-linecap="round" stroke-linejoin="round" stroke-width="26.04" d="M-.005 0h.01" style="display:block" transform="translate(395.78 256.331)"/><path fill="none" stroke="#121330" stroke-linecap="round" stroke-linejoin="round" stroke-width="28.98" d="M-.005 0h.01" style="display:block" transform="translate(327.671 199.294)"/><path fill="none" stroke="#121330" stroke-linecap="round" stroke-linejoin="round" stroke-width="26.04" d="M-.005 0h.01" style="display:block" transform="translate(359.21 242.24)"/><path fill="none" stroke="#121330" stroke-linecap="round" stroke-linejoin="round" stroke-width="21.98" d="M-.005 0h.01" style="display:block" transform="translate(378.329 284.178)"/><path fill="none" stroke="#121330" stroke-linecap="round" stroke-linejoin="round" stroke-width="26.04" d="M-.005 0h.01" style="display:block" transform="translate(314.251 236.052)"/><path fill="none" stroke="#121330" stroke-linecap="round" stroke-linejoin="round" stroke-width="21.98" d="M-.005 0h.01" style="display:block" transform="translate(341.763 269.707)"/><path fill="none" stroke="#121330" stroke-linecap="round" stroke-linejoin="round" stroke-width="19.04" d="M-.005 0h.01" style="display:block" transform="translate(357.281 303.973)"/><path fill="none" stroke="#121330" stroke-linecap="round" stroke-linejoin="round" stroke-width="21.98" d="M-.005 0h.01" style="display:block" transform="translate(296.169 264.047)"/><path fill="none" stroke="#121330" stroke-linecap="round" stroke-linejoin="round" stroke-width="19.04" d="M-.005 0h.01" style="display:block" transform="translate(321.632 289.774)"/><path fill="none" stroke="#121330" stroke-linecap="round" stroke-linejoin="round" stroke-width="15.96" d="M-.005 0h.01" style="display:block" transform="translate(337.402 315.628)"/><path fill="none" stroke="#121330" stroke-linecap="round" stroke-linejoin="round" stroke-width="19.04" d="M-.005 0h.01" style="display:block" transform="translate(276.339 283.171)"/><path fill="none" stroke="#121330" stroke-linecap="round" stroke-linejoin="round" stroke-width="15.96" d="M-.005 0h.01" style="display:block" transform="translate(300.159 301.96)"/><path fill="none" stroke="#121330" stroke-linecap="round" stroke-linejoin="round" stroke-width="14" d="M-.005 0h.01" style="display:block" transform="translate(317.606 322.091)"/><g opacity="0" style="display:block"><path fill="none" stroke="#121330" stroke-linecap="round" stroke-linejoin="round" stroke-width="9.52" d="M246.337 295.171h.005" opacity="1"/></g><g opacity="0" style="display:block"><path fill="none" stroke="#121330" stroke-linecap="round" stroke-linejoin="round" stroke-width="7.98" d="M270.156 313.96h.005" opacity="1"/></g><g opacity="0" style="display:block"><path fill="none" stroke="#121330" stroke-linecap="round" stroke-linejoin="round" stroke-width="7" d="M287.603 334.091h.005" opacity="1"/></g></g><g clip-path="url(#d)" style="display:block" transform="rotate(120 256.338 249.992)"><path fill="none" stroke="#4AB3FC" stroke-linecap="round" stroke-linejoin="round" stroke-width="42" d="M-.005 0h.01" style="display:block" transform="translate(327.001 99.735)"/><path fill="none" stroke="#121330" stroke-linecap="round" stroke-linejoin="round" stroke-width="35" d="M-.005 0h.01" style="display:block" transform="translate(378.334 159.703)"/><path fill="none" stroke="#121330" stroke-linecap="round" stroke-linejoin="round" stroke-width="28.98" d="M-.005 0h.01" style="display:block" transform="translate(409.535 219.424)"/><path fill="none" stroke="#121330" stroke-linecap="round" stroke-linejoin="round" stroke-width="35" d="M-.005 0h.01" style="display:block" transform="translate(333.04 154.083)"/><g opacity="0" style="display:block"><path fill="none" stroke="#121330" stroke-linecap="round" stroke-linejoin="round" stroke-width="35" d="M333.035 154.083h.01" opacity="1"/></g><path fill="none" stroke="#121330" stroke-linecap="round" stroke-linejoin="round" stroke-width="28.98" d="M-.005 0h.01" style="display:block" transform="translate(372.966 205.333)"/><path fill="none" stroke="#121330" stroke-linecap="round" stroke-linejoin="round" stroke-width="26.04" d="M-.005 0h.01" style="display:block" transform="translate(395.78 256.331)"/><path fill="none" stroke="#121330" stroke-linecap="round" stroke-linejoin="round" stroke-width="28.98" d="M-.005 0h.01" style="display:block" transform="translate(327.671 199.294)"/><path fill="none" stroke="#121330" stroke-linecap="round" stroke-linejoin="round" stroke-width="26.04" d="M-.005 0h.01" style="display:block" transform="translate(359.21 242.24)"/><path fill="none" stroke="#121330" stroke-linecap="round" stroke-linejoin="round" stroke-width="21.98" d="M-.005 0h.01" style="display:block" transform="translate(378.329 284.178)"/><path fill="none" stroke="#121330" stroke-linecap="round" stroke-linejoin="round" stroke-width="26.04" d="M-.005 0h.01" style="display:block" transform="translate(314.251 236.052)"/><path fill="none" stroke="#121330" stroke-linecap="round" stroke-linejoin="round" stroke-width="21.98" d="M-.005 0h.01" style="display:block" transform="translate(341.763 269.707)"/><path fill="none" stroke="#121330" stroke-linecap="round" stroke-linejoin="round" stroke-width="19.04" d="M-.005 0h.01" style="display:block" transform="translate(357.281 303.973)"/><path fill="none" stroke="#121330" stroke-linecap="round" stroke-linejoin="round" stroke-width="21.98" d="M-.005 0h.01" style="display:block" transform="translate(296.169 264.047)"/><path fill="none" stroke="#121330" stroke-linecap="round" stroke-linejoin="round" stroke-width="19.04" d="M-.005 0h.01" style="display:block" transform="translate(321.632 289.774)"/><path fill="none" stroke="#121330" stroke-linecap="round" stroke-linejoin="round" stroke-width="15.96" d="M-.005 0h.01" style="display:block" transform="translate(337.402 315.628)"/><path fill="none" stroke="#121330" stroke-linecap="round" stroke-linejoin="round" stroke-width="19.04" d="M-.005 0h.01" style="display:block" transform="translate(276.339 283.171)"/><path fill="none" stroke="#121330" stroke-linecap="round" stroke-linejoin="round" stroke-width="15.96" d="M-.005 0h.01" style="display:block" transform="translate(300.159 301.96)"/><path fill="none" stroke="#121330" stroke-linecap="round" stroke-linejoin="round" stroke-width="14" d="M-.005 0h.01" style="display:block" transform="translate(317.606 322.091)"/><g opacity="0" style="display:block"><path fill="none" stroke="#121330" stroke-linecap="round" stroke-linejoin="round" stroke-width="9.52" d="M246.337 295.171h.005" opacity="1"/></g><g opacity="0" style="display:block"><path fill="none" stroke="#121330" stroke-linecap="round" stroke-linejoin="round" stroke-width="7.98" d="M270.156 313.96h.005" opacity="1"/></g><g opacity="0" style="display:block"><path fill="none" stroke="#121330" stroke-linecap="round" stroke-linejoin="round" stroke-width="7" d="M287.603 334.091h.005" opacity="1"/></g></g><g class="com" style="display:none"><path/><path/><path/><path/><path/><path/><path/><path/><path/><path/><path/><path/></g></g></svg>